<?xml version="1.0" encoding="utf-8"?>
<!-- Generator: Adobe Illustrator 16.0.4, SVG Export Plug-In . SVG Version: 6.00 Build 0)  -->
<!DOCTYPE svg PUBLIC "-//W3C//DTD SVG 1.1//EN" "http://www.w3.org/Graphics/SVG/1.1/DTD/svg11.dtd">
<svg version="1.1" id="Layer_1" xmlns="http://www.w3.org/2000/svg" xmlns:xlink="http://www.w3.org/1999/xlink" x="0px" y="0px"
	 width="319px" height="319px" viewBox="0 -46.5 319 319" enable-background="new 0 -46.5 319 319" xml:space="preserve">
<g>
	<path fill="#EEEEEE" d="M142.618,212.789c5.872,5.865,13.844,8.801,23.916,8.801c8.812,0,16.292-1.119,22.444-3.35
		c6.153-2.23,15.525-5.863,28.113-10.889l3.146-13.398c-2.654,0.979-6.432,1.885-11.324,2.723
		c-4.895,0.836-8.672,1.256-11.329,1.256c-7.968,0-13.631-1.396-16.985-4.19c-3.353-2.793-5.026-8.175-5.026-16.14
		c0-2.933,0.591-7.509,1.778-13.728c1.185-6.218,2.336-11.495,3.455-15.826l31.896-135.189l-2.52-3.144l-38.426,9.85
		c-5.162-3.35-12.242-6.353-21.238-9.009c-8.996-2.653-18.446-3.981-28.345-3.981c-15.624,0-30.829,3.808-45.611,11.423
		c-14.787,7.616-27.548,17.64-38.287,30.071c-11.3,12.992-20.155,27.665-26.57,44.008c-6.418,16.346-9.624,33.18-9.624,50.505
		c0,25.15,5.748,44.986,17.25,59.518c11.498,14.53,27.354,21.795,47.564,21.795c7.527,0,14.499-1.293,20.91-3.877
		c6.412-2.584,12.333-5.621,17.77-9.113c5.714-3.494,10.697-7.162,14.95-11.002c4.252-3.84,7.91-7.021,10.978-9.535h1.462
		C133.527,199.445,136.742,206.922,142.618,212.789z M136.321,170.678c-10.73,11.041-20.377,18.762-28.944,23.165
		c-8.568,4.403-16.752,6.603-24.552,6.603c-7.661,0-14-1.465-19.016-4.401c-5.015-2.935-8.845-7.056-11.492-12.368
		c-2.787-5.449-4.668-11.457-5.643-18.025c-0.975-6.567-1.462-14.115-1.462-22.641c0-15.508,2.303-30.809,6.913-45.902
		C56.73,82.016,62.667,69.161,69.93,58.539c7.678-11.319,16.333-20.331,25.971-27.037c9.633-6.707,19.549-10.063,29.746-10.063
		c7.399,0,13.542,1.051,18.431,3.145c4.887,2.097,8.728,4.89,11.521,8.384c3.071,3.634,5.096,7.546,6.075,11.74
		c0.975,4.194,1.465,8.593,1.465,13.203L136.321,170.678z"/>
	<path fill="#EEEEEE" d="M312.988,6.261c-2.621-2.768-6.304-4.153-11.049-4.153c-5.439,0-10.406,1.831-14.904,5.487
		c-4.5,3.659-7.391,8.504-8.676,14.533c-1.088,5.242-3.438,22.814-7.043,52.72c-3.611,29.908-7.096,56.279-10.455,79.117h11.566
		c8.698-26.693,16.436-49.628,23.206-68.811c6.773-19.178,12.48-35.788,17.131-49.827c1.58-4.646,2.671-8.428,3.265-11.346
		c0.59-2.915,0.887-5.264,0.887-7.044C316.916,12.588,315.605,9.029,312.988,6.261z M272.797,186.665
		c-4-4.004-8.771-6.006-14.309-6.006c-5.539,0-10.307,2.002-14.312,6.006c-4.004,4.004-6.006,8.774-6.006,14.312
		s2.002,10.258,6.006,14.162c4.005,3.904,8.771,5.857,14.312,5.857c5.537,0,10.309-1.953,14.309-5.857
		c4.006-3.904,6.008-8.625,6.008-14.162S276.803,190.669,272.797,186.665z"/>
</g>
</svg>
